<?xml version="1.0" encoding="UTF-8"?>
<svg id="Layer_2" data-name="Layer 2" xmlns="http://www.w3.org/2000/svg" xmlns:xlink="http://www.w3.org/1999/xlink" viewBox="0 0 502.24 504.56">
  <defs>
    <style>
      .cls-1 {
        letter-spacing: .03em;
      }

      .cls-2 {
        letter-spacing: 0em;
      }

      .cls-3, .cls-4, .cls-5 {
        fill: none;
      }

      .cls-3, .cls-5 {
        stroke: #000;
        stroke-miterlimit: 10;
      }

      .cls-6 {
        letter-spacing: 0em;
      }

      .cls-7, .cls-8 {
        font-family: MyriadPro-Bold, 'Myriad Pro';
        font-weight: 700;
      }

      .cls-7, .cls-9 {
        font-size: 9px;
      }

      .cls-10 {
        letter-spacing: -.06em;
      }

      .cls-11 {
        letter-spacing: .02em;
      }

      .cls-12 {
        letter-spacing: -.03em;
      }

      .cls-13 {
        letter-spacing: 0em;
      }

      .cls-14 {
        letter-spacing: 0em;
      }

      .cls-15 {
        letter-spacing: -.01em;
      }

      .cls-16 {
        letter-spacing: -.01em;
      }

      .cls-17 {
        fill: #231f20;
      }

      .cls-18 {
        letter-spacing: -.05em;
      }

      .cls-19 {
        letter-spacing: 0em;
      }

      .cls-20 {
        letter-spacing: 0em;
      }

      .cls-21 {
        letter-spacing: -.04em;
      }

      .cls-22 {
        letter-spacing: 0em;
      }

      .cls-23 {
        letter-spacing: -.04em;
      }

      .cls-24 {
        letter-spacing: 0em;
      }

      .cls-25 {
        letter-spacing: -.05em;
      }

      .cls-26 {
        letter-spacing: .03em;
      }

      .cls-27 {
        letter-spacing: 0em;
      }

      .cls-28 {
        letter-spacing: 0em;
      }

      .cls-29 {
        letter-spacing: .01em;
      }

      .cls-30 {
        letter-spacing: 0em;
      }

      .cls-31 {
        letter-spacing: .02em;
      }

      .cls-8 {
        font-size: 11px;
      }

      .cls-32 {
        letter-spacing: -.01em;
      }

      .cls-33 {
        letter-spacing: 0em;
      }

      .cls-34 {
        letter-spacing: 0em;
      }

      .cls-35 {
        letter-spacing: -.01em;
      }

      .cls-36 {
        letter-spacing: 0em;
      }

      .cls-37 {
        letter-spacing: 0em;
      }

      .cls-38 {
        letter-spacing: -.01em;
      }

      .cls-5 {
        stroke-dasharray: 4.99 4.99;
      }

      .cls-39 {
        letter-spacing: 0em;
      }

      .cls-40 {
        letter-spacing: 0em;
      }

      .cls-9 {
        font-family: MyriadPro-Regular, 'Myriad Pro';
      }

      .cls-41 {
        letter-spacing: 0em;
      }

      .cls-42 {
        letter-spacing: .02em;
      }

      .cls-43 {
        letter-spacing: 0em;
      }

      .cls-44 {
        letter-spacing: 0em;
      }

      .cls-45 {
        letter-spacing: -.01em;
      }

      .cls-46 {
        letter-spacing: -.02em;
      }

      .cls-47 {
        letter-spacing: 0em;
      }

      .cls-48 {
        letter-spacing: 0em;
      }

      .cls-49 {
        letter-spacing: 0em;
      }

      .cls-50 {
        letter-spacing: .01em;
      }

      .cls-51 {
        letter-spacing: -.01em;
      }

      .cls-52 {
        letter-spacing: -.01em;
      }

      .cls-53 {
        letter-spacing: 0em;
      }

      .cls-54 {
        letter-spacing: .02em;
      }

      .cls-55 {
        letter-spacing: -.02em;
      }

      .cls-56 {
        letter-spacing: 0em;
      }

      .cls-57 {
        letter-spacing: 0em;
      }

      .cls-58 {
        fill: #e6e6e6;
      }

      .cls-59 {
        letter-spacing: 0em;
      }
    </style>
    <symbol id="Reload" viewBox="0 0 57.16 58">
      <path d="M28.78,49c-10.91,0-19.78-8.87-19.78-19.78S17.87,9.44,28.78,9.44c4.68,0,8.97,1.64,12.36,4.37l-9.81,8.48,25.83,3.81-.05-26.11-9.07,7.84C42.94,3.25,36.19.44,28.78.44,12.89.44,0,13.33,0,29.22s12.89,28.78,28.78,28.78c12.47,0,23.08-7.93,27.08-19.02l-9.2-1.36c-3.17,6.71-9.98,11.37-17.88,11.37Z"/>
    </symbol>
  </defs>
  <g id="Layer_1-2" data-name="Layer 1">
    <g>
      <g>
        <ellipse class="cls-3" cx="251.68" cy="40.5" rx="120" ry="40"/>
        <text transform="translate(211.11 22.38)"><tspan class="cls-8"><tspan class="cls-2" x="0" y="0">N</tspan><tspan class="cls-43" x="7.56" y="0">e</tspan><tspan class="cls-39" x="13.3" y="0">w HTR </tspan><tspan class="cls-33" x="46.22" y="0">P</tspan><tspan class="cls-59" x="52.51" y="0">r</tspan><tspan x="56.61" y="0">oje</tspan><tspan class="cls-11" x="71.96" y="0">c</tspan><tspan class="cls-47" x="77.1" y="0">t</tspan></tspan><tspan class="cls-9"><tspan x="-48.2" y="10.8">Need HTR videos with pose estim</tspan><tspan class="cls-13" x="76.57" y="10.8">a</tspan><tspan x="80.87" y="10.8">tion (h5) files</tspan></tspan><tspan class="cls-9"><tspan x="-17.28" y="21.6">(</tspan><tspan class="cls-40" x="-14.73" y="21.6">t</tspan><tspan x="-11.8" y="21.6">o</tspan><tspan class="cls-50" x="-6.86" y="21.6">p</tspan><tspan class="cls-54" x="-1.61" y="21.6">-</tspan><tspan x="1.32" y="21.6">d</tspan><tspan class="cls-49" x="6.4" y="21.6">o</tspan><tspan x="11.27" y="21.6">wn view with labels on </tspan></tspan><tspan class="cls-9"><tspan x="-13.49" y="32.4">ear</tspan><tspan class="cls-15" x="-1.7" y="32.4">s</tspan><tspan x="1.76" y="32.4">, hea</tspan><tspan class="cls-35" x="19.37" y="32.4">d</tspan><tspan x="24.36" y="32.4">, nos</tspan><tspan class="cls-16" x="41.63" y="32.4">e</tspan><tspan x="46.03" y="32.4">, upper back)</tspan></tspan></text>
        <g>
          <rect class="cls-4" x="246.68" y="80.92" width="10" height="17.37"/>
          <polygon class="cls-17" points="249.87 80.92 249.87 89.63 246.68 89.63 251.68 98.29 256.68 89.63 253.48 89.63 253.48 80.92 249.87 80.92"/>
        </g>
      </g>
      <g>
        <g>
          <rect class="cls-58" x="151.62" y="211.39" width="200" height="84.39" rx="10" ry="10"/>
          <rect class="cls-3" x="151.62" y="211.39" width="200" height="84.39" rx="10" ry="10"/>
        </g>
        <text class="cls-8" transform="translate(192.46 225.05)"><tspan x="0" y="0">D</tspan><tspan class="cls-59" x="7.66" y="0">a</tspan><tspan x="13.38" y="0">ta </tspan><tspan class="cls-33" x="25.44" y="0">P</tspan><tspan class="cls-59" x="31.73" y="0">r</tspan><tspan x="35.83" y="0">epa</tspan><tspan class="cls-38" x="54.02" y="0">r</tspan><tspan class="cls-59" x="58.08" y="0">a</tspan><tspan x="63.8" y="0">tion Phase</tspan></text>
        <rect class="cls-3" x="176.62" y="236.82" width="150" height="38.3" rx="10" ry="10"/>
        <g>
          <path d="M205.78,250.36h-2.36v2.19h2.63v.66h-3.41v-6.07h3.28v.66h-2.49v1.92h2.36v.65Z"/>
          <path d="M207.4,248.85l.62.94c.16.24.3.47.44.71h.03c.14-.26.29-.49.43-.72l.61-.93h.85l-1.49,2.11,1.53,2.25h-.9l-.64-.98c-.17-.25-.31-.5-.47-.76h-.02c-.14.26-.3.5-.46.76l-.63.98h-.87l1.55-2.22-1.48-2.13h.88Z"/>
          <path d="M212.27,247.6v1.25h1.13v.6h-1.13v2.35c0,.54.15.85.59.85.21,0,.36-.03.46-.05l.04.59c-.15.06-.4.11-.7.11-.37,0-.67-.12-.85-.33-.23-.23-.31-.62-.31-1.13v-2.38h-.68v-.6h.68v-1.04l.77-.21Z"/>
          <path d="M214.3,250.21c0-.51,0-.95-.04-1.36h.69l.03.86h.04c.2-.59.68-.95,1.21-.95.09,0,.15,0,.23.03v.75c-.08-.02-.16-.03-.27-.03-.56,0-.95.42-1.06,1.02-.02.11-.04.23-.04.37v2.32h-.78v-3Z"/>
          <path d="M219.61,253.21l-.06-.55h-.03c-.24.34-.71.65-1.33.65-.88,0-1.33-.62-1.33-1.25,0-1.05.94-1.63,2.62-1.62v-.09c0-.36-.1-1.01-.99-1.01-.4,0-.83.13-1.13.32l-.18-.52c.36-.23.88-.39,1.43-.39,1.33,0,1.66.91,1.66,1.78v1.63c0,.38.02.75.07,1.04h-.72ZM219.49,250.98c-.86-.02-1.85.13-1.85.98,0,.51.34.76.75.76.57,0,.93-.36,1.05-.73.03-.08.05-.17.05-.25v-.76Z"/>
          <path d="M224.64,253.04c-.21.11-.67.25-1.25.25-1.31,0-2.17-.89-2.17-2.22s.92-2.31,2.34-2.31c.47,0,.88.12,1.1.23l-.18.61c-.19-.11-.49-.21-.92-.21-1,0-1.54.74-1.54,1.65,0,1.01.65,1.63,1.51,1.63.45,0,.75-.12.97-.22l.14.59Z"/>
          <path d="M226.64,247.6v1.25h1.13v.6h-1.13v2.35c0,.54.15.85.59.85.21,0,.36-.03.46-.05l.04.59c-.15.06-.4.11-.7.11-.37,0-.67-.12-.85-.33-.23-.23-.31-.62-.31-1.13v-2.38h-.68v-.6h.68v-1.04l.77-.21Z"/>
          <path d="M230.6,247.14h3.27v.66h-2.48v2.02h2.3v.65h-2.3v2.75h-.78v-6.07Z"/>
          <path d="M235.11,251.17c.02,1.07.7,1.51,1.49,1.51.57,0,.91-.1,1.21-.23l.13.57c-.28.13-.76.27-1.45.27-1.34,0-2.14-.88-2.14-2.2s.77-2.35,2.04-2.35c1.42,0,1.8,1.25,1.8,2.05,0,.16-.02.29-.03.37h-3.06ZM237.44,250.61c0-.5-.21-1.29-1.1-1.29-.8,0-1.15.74-1.22,1.29h2.31Z"/>
          <path d="M241.59,253.21l-.06-.55h-.03c-.24.34-.71.65-1.33.65-.88,0-1.33-.62-1.33-1.25,0-1.05.94-1.63,2.62-1.62v-.09c0-.36-.1-1.01-.99-1.01-.4,0-.83.13-1.13.32l-.18-.52c.36-.23.88-.39,1.43-.39,1.33,0,1.66.91,1.66,1.78v1.63c0,.38.02.75.07,1.04h-.72ZM241.48,250.98c-.86-.02-1.85.13-1.85.98,0,.51.34.76.75.76.57,0,.93-.36,1.05-.73.03-.08.05-.17.05-.25v-.76Z"/>
          <path d="M244.44,247.6v1.25h1.13v.6h-1.13v2.35c0,.54.15.85.59.85.21,0,.36-.03.46-.05l.04.59c-.15.06-.4.11-.7.11-.37,0-.67-.12-.85-.33-.23-.23-.31-.62-.31-1.13v-2.38h-.68v-.6h.68v-1.04l.77-.21Z"/>
          <path d="M250.11,252.02c0,.45,0,.85.04,1.19h-.7l-.04-.71h-.02c-.21.35-.67.81-1.44.81-.68,0-1.5-.38-1.5-1.91v-2.55h.79v2.41c0,.83.25,1.39.97,1.39.53,0,.9-.37,1.04-.72.04-.12.07-.26.07-.41v-2.67h.79v3.17Z"/>
          <path d="M251.42,250.21c0-.51,0-.95-.04-1.36h.69l.03.86h.04c.2-.59.68-.95,1.21-.95.09,0,.15,0,.22.03v.75c-.08-.02-.16-.03-.27-.03-.56,0-.95.42-1.06,1.02-.02.11-.04.23-.04.37v2.32h-.78v-3Z"/>
          <path d="M254.72,251.17c.02,1.07.7,1.51,1.49,1.51.57,0,.91-.1,1.21-.23l.13.57c-.28.13-.76.27-1.45.27-1.34,0-2.14-.88-2.14-2.2s.77-2.35,2.04-2.35c1.42,0,1.8,1.25,1.8,2.05,0,.16-.02.29-.03.37h-3.06ZM257.04,250.61c0-.5-.21-1.29-1.1-1.29-.8,0-1.15.74-1.22,1.29h2.31Z"/>
          <path d="M258.68,252.4c.23.15.65.31,1.04.31.58,0,.85-.29.85-.65s-.23-.58-.81-.8c-.78-.28-1.15-.71-1.15-1.23,0-.7.57-1.28,1.5-1.28.44,0,.83.13,1.07.27l-.2.58c-.17-.11-.49-.25-.89-.25-.47,0-.73.27-.73.59,0,.36.26.52.83.74.76.29,1.14.67,1.14,1.31,0,.77-.59,1.31-1.63,1.31-.48,0-.92-.12-1.22-.3l.2-.6Z"/>
          <path d="M264.34,253.21v-3.75h-.61v-.6h.61v-.21c0-.61.13-1.17.5-1.52.3-.29.69-.4,1.06-.4.28,0,.52.06.68.13l-.11.61c-.12-.05-.28-.1-.5-.1-.68,0-.85.59-.85,1.26v.23h1.05v.6h-1.05v3.75h-.78Z"/>
          <path d="M270.71,250.99c0,1.61-1.12,2.31-2.17,2.31-1.18,0-2.09-.86-2.09-2.24,0-1.46.95-2.31,2.16-2.31s2.1.91,2.1,2.24ZM267.25,251.04c0,.95.55,1.67,1.32,1.67s1.32-.71,1.32-1.69c0-.74-.37-1.67-1.31-1.67s-1.34.86-1.34,1.69Z"/>
          <path d="M271.71,250.21c0-.51,0-.95-.04-1.36h.69l.03.86h.04c.2-.59.68-.95,1.21-.95.09,0,.15,0,.23.03v.75c-.08-.02-.16-.03-.27-.03-.56,0-.95.42-1.06,1.02-.02.11-.04.23-.04.37v2.32h-.78v-3Z"/>
          <path d="M278.97,253.21l-.06-.55h-.03c-.24.34-.71.65-1.33.65-.88,0-1.33-.62-1.33-1.25,0-1.05.94-1.63,2.62-1.62v-.09c0-.36-.1-1.01-.99-1.01-.4,0-.83.13-1.13.32l-.18-.52c.36-.23.88-.39,1.43-.39,1.33,0,1.66.91,1.66,1.78v1.63c0,.38.02.75.07,1.04h-.72ZM278.85,250.98c-.86-.02-1.85.13-1.85.98,0,.51.34.76.75.76.57,0,.93-.36,1.05-.73.03-.08.05-.17.05-.25v-.76Z"/>
          <path d="M280.9,246.81h.79v6.39h-.79v-6.39Z"/>
          <path d="M283.02,246.81h.79v6.39h-.79v-6.39Z"/>
          <path d="M287.13,253.21v-3.75h-.61v-.6h.61v-.23c0-1.15.68-1.9,1.9-1.9.41,0,.88.13,1.11.29l-.23.6c-.19-.14-.53-.25-.92-.25-.84,0-1.08.58-1.08,1.28v.22h2.53v4.36h-.78v-3.75h-1.75v3.75h-.78Z"/>
          <path d="M291.76,246.81h.79v6.39h-.79v-6.39Z"/>
          <path d="M294.32,251.17c.02,1.07.7,1.51,1.49,1.51.57,0,.91-.1,1.21-.23l.13.57c-.28.13-.76.27-1.45.27-1.34,0-2.14-.88-2.14-2.2s.77-2.35,2.04-2.35c1.42,0,1.8,1.25,1.8,2.05,0,.16-.02.29-.03.37h-3.06ZM296.65,250.61c0-.5-.21-1.29-1.1-1.29-.8,0-1.15.74-1.22,1.29h2.31Z"/>
          <path d="M298.28,252.4c.23.15.65.31,1.04.31.58,0,.85-.29.85-.65s-.23-.58-.81-.8c-.78-.28-1.15-.71-1.15-1.23,0-.7.57-1.28,1.5-1.28.44,0,.83.13,1.07.27l-.2.58c-.17-.11-.49-.25-.89-.25-.47,0-.73.27-.73.59,0,.36.26.52.83.74.76.29,1.14.67,1.14,1.31,0,.77-.59,1.31-1.63,1.31-.48,0-.92-.12-1.22-.3l.2-.6Z"/>
          <path d="M206.3,257.76c-.66.88-1.13,2.05-1.13,3.68s.5,2.75,1.13,3.66h-.62c-.57-.75-1.18-1.9-1.18-3.66,0-1.77.61-2.93,1.18-3.68h.62Z"/>
          <path d="M207.17,258.01c.38-.06.87-.12,1.5-.12.77,0,1.34.18,1.7.5.33.29.53.73.53,1.27s-.16.98-.47,1.3c-.41.44-1.09.67-1.85.67-.23,0-.45,0-.63-.05v2.43h-.78v-6ZM207.95,260.94c.17.04.39.06.65.06.95,0,1.52-.46,1.52-1.3s-.57-1.19-1.43-1.19c-.34,0-.6.03-.74.06v2.36Z"/>
          <path d="M211.78,261.01c0-.51,0-.95-.04-1.36h.69l.03.86h.04c.2-.59.68-.95,1.21-.95.09,0,.15,0,.22.03v.75c-.08-.02-.16-.03-.27-.03-.56,0-.95.42-1.06,1.02-.02.11-.04.23-.04.37v2.32h-.78v-3Z"/>
          <path d="M215.08,261.97c.02,1.07.7,1.51,1.49,1.51.57,0,.91-.1,1.21-.23l.13.57c-.28.13-.76.27-1.45.27-1.34,0-2.14-.88-2.14-2.2s.77-2.35,2.04-2.35c1.42,0,1.8,1.25,1.8,2.05,0,.16-.02.29-.03.37h-3.06ZM217.4,261.41c0-.5-.21-1.29-1.1-1.29-.8,0-1.15.74-1.22,1.29h2.31Z"/>
          <path d="M219.14,261.07c0-.56-.02-1.01-.04-1.42h.71l.04.75h.02c.32-.53.84-.85,1.55-.85,1.05,0,1.85.89,1.85,2.21,0,1.57-.95,2.34-1.98,2.34-.58,0-1.08-.25-1.34-.68h-.02v2.37h-.78v-4.72ZM219.93,262.23c0,.12.02.23.04.32.14.55.62.93,1.19.93.84,0,1.32-.68,1.32-1.68,0-.87-.46-1.62-1.3-1.62-.54,0-1.04.39-1.2.98-.03.1-.05.22-.05.32v.75Z"/>
          <path d="M226.68,264.01l-.06-.55h-.03c-.24.34-.71.65-1.33.65-.88,0-1.33-.62-1.33-1.25,0-1.05.94-1.63,2.62-1.62v-.09c0-.36-.1-1.01-.99-1.01-.4,0-.83.13-1.13.32l-.18-.52c.36-.23.88-.39,1.43-.39,1.33,0,1.66.91,1.66,1.78v1.63c0,.38.02.75.07,1.04h-.72ZM226.56,261.78c-.86-.02-1.85.13-1.85.98,0,.51.34.76.75.76.57,0,.93-.36,1.05-.73.03-.08.05-.17.05-.25v-.76Z"/>
          <path d="M228.6,261.01c0-.51,0-.95-.04-1.36h.69l.03.86h.04c.2-.59.68-.95,1.21-.95.09,0,.15,0,.23.03v.75c-.08-.02-.16-.03-.27-.03-.56,0-.95.42-1.06,1.02-.02.11-.04.23-.04.37v2.32h-.78v-3Z"/>
          <path d="M231.9,261.97c.02,1.07.7,1.51,1.49,1.51.57,0,.91-.1,1.21-.23l.13.57c-.28.13-.76.27-1.45.27-1.34,0-2.14-.88-2.14-2.2s.77-2.35,2.04-2.35c1.42,0,1.8,1.25,1.8,2.05,0,.16-.02.29-.03.37h-3.06ZM234.22,261.41c0-.5-.21-1.29-1.1-1.29-.8,0-1.15.74-1.22,1.29h2.31Z"/>
          <path d="M237.9,258.02c.48-.07,1.04-.13,1.67-.13,1.13,0,1.93.26,2.46.76.54.5.85,1.2.85,2.18s-.31,1.8-.87,2.36c-.57.57-1.5.87-2.68.87-.56,0-1.03-.03-1.42-.07v-5.97ZM238.68,263.39c.2.04.49.04.79.04,1.67,0,2.58-.94,2.58-2.57,0-1.43-.8-2.34-2.46-2.34-.41,0-.71.04-.92.08v4.79Z"/>
          <path d="M246.28,264.01l-.06-.55h-.03c-.24.34-.71.65-1.33.65-.88,0-1.33-.62-1.33-1.25,0-1.05.94-1.63,2.62-1.62v-.09c0-.36-.1-1.01-.99-1.01-.41,0-.83.13-1.13.32l-.18-.52c.36-.23.88-.39,1.43-.39,1.33,0,1.66.91,1.66,1.78v1.63c0,.38.02.75.07,1.04h-.72ZM246.16,261.78c-.86-.02-1.85.13-1.85.98,0,.51.34.76.75.76.57,0,.93-.36,1.05-.73.03-.08.04-.17.04-.25v-.76Z"/>
          <path d="M249.12,258.4v1.25h1.13v.6h-1.13v2.35c0,.54.15.85.59.85.21,0,.36-.03.46-.05l.04.59c-.15.06-.4.11-.7.11-.37,0-.67-.12-.85-.33-.23-.23-.31-.62-.31-1.13v-2.38h-.68v-.6h.68v-1.04l.77-.21Z"/>
          <path d="M253.56,264.01l-.06-.55h-.03c-.24.34-.71.65-1.33.65-.88,0-1.33-.62-1.33-1.25,0-1.05.94-1.63,2.62-1.62v-.09c0-.36-.1-1.01-.99-1.01-.4,0-.83.13-1.13.32l-.18-.52c.36-.23.88-.39,1.43-.39,1.33,0,1.66.91,1.66,1.78v1.63c0,.38.02.75.07,1.04h-.72ZM253.44,261.78c-.86-.02-1.85.13-1.85.98,0,.51.34.76.75.76.57,0,.93-.36,1.05-.73.03-.08.05-.17.05-.25v-.76Z"/>
          <path d="M258.2,258.61h-1.85v-.67h4.49v.67h-1.85v5.4h-.79v-5.4Z"/>
          <path d="M263.33,264.01l-.06-.55h-.03c-.24.34-.71.65-1.33.65-.88,0-1.33-.62-1.33-1.25,0-1.05.94-1.63,2.62-1.62v-.09c0-.36-.1-1.01-.99-1.01-.41,0-.83.13-1.13.32l-.18-.52c.36-.23.88-.39,1.43-.39,1.33,0,1.66.91,1.66,1.78v1.63c0,.38.02.75.07,1.04h-.72ZM263.22,261.78c-.86-.02-1.85.13-1.85.98,0,.51.34.76.75.76.57,0,.93-.36,1.05-.73.03-.08.04-.17.04-.25v-.76Z"/>
          <path d="M265.22,264.01c.02-.3.04-.74.04-1.13v-5.27h.78v2.74h.02c.28-.49.78-.8,1.49-.8,1.08,0,1.85.9,1.84,2.22,0,1.56-.98,2.33-1.95,2.33-.63,0-1.13-.24-1.46-.82h-.03l-.04.72h-.68ZM266.04,262.26c0,.1.02.2.04.29.15.55.61.93,1.19.93.83,0,1.32-.68,1.32-1.67,0-.87-.45-1.62-1.3-1.62-.54,0-1.04.37-1.21.97-.02.09-.04.2-.04.32v.78Z"/>
          <path d="M269.65,265.11c.2-.53.44-1.49.54-2.15l.88-.09c-.21.77-.6,1.76-.85,2.19l-.57.05Z"/>
          <path d="M273.85,263.05c.35.22.86.4,1.4.4.8,0,1.27-.42,1.27-1.04,0-.57-.32-.89-1.14-1.21-.99-.35-1.6-.86-1.6-1.72,0-.95.78-1.65,1.96-1.65.62,0,1.07.14,1.34.3l-.22.64c-.2-.11-.6-.29-1.15-.29-.83,0-1.14.5-1.14.91,0,.57.37.85,1.21,1.17,1.03.4,1.55.89,1.55,1.78,0,.94-.69,1.75-2.12,1.75-.59,0-1.22-.17-1.55-.39l.2-.66Z"/>
          <path d="M279.3,258.4v1.25h1.13v.6h-1.13v2.35c0,.54.15.85.59.85.21,0,.36-.03.46-.05l.04.59c-.15.06-.4.11-.7.11-.37,0-.67-.12-.85-.33-.23-.23-.31-.62-.31-1.13v-2.38h-.68v-.6h.68v-1.04l.77-.21Z"/>
          <path d="M281.71,261.97c.02,1.07.7,1.51,1.49,1.51.57,0,.91-.1,1.21-.23l.13.57c-.28.13-.76.27-1.45.27-1.34,0-2.14-.88-2.14-2.2s.77-2.35,2.04-2.35c1.42,0,1.8,1.25,1.8,2.05,0,.16-.02.29-.03.37h-3.06ZM284.03,261.41c0-.5-.21-1.29-1.1-1.29-.8,0-1.15.74-1.22,1.29h2.31Z"/>
          <path d="M285.78,261.07c0-.56-.02-1.01-.04-1.42h.71l.04.75h.02c.32-.53.84-.85,1.55-.85,1.05,0,1.85.89,1.85,2.21,0,1.57-.95,2.34-1.98,2.34-.58,0-1.08-.25-1.34-.68h-.02v2.37h-.78v-4.72ZM286.56,262.23c0,.12.02.23.04.32.14.55.62.93,1.19.93.84,0,1.32-.68,1.32-1.68,0-.87-.46-1.62-1.3-1.62-.54,0-1.04.39-1.2.98-.03.1-.05.22-.05.32v.75Z"/>
          <path d="M294.28,258.89h-.02l-1.02.55-.15-.6,1.28-.68h.67v5.85h-.77v-5.11Z"/>
          <path d="M296.95,265.1c.64-.89,1.13-2.06,1.13-3.68s-.49-2.76-1.13-3.66h.61c.58.74,1.18,1.89,1.18,3.66s-.6,2.91-1.18,3.67h-.61Z"/>
        </g>
        <g>
          <rect class="cls-4" x="246.68" y="295.38" width="10" height="17.37"/>
          <polygon class="cls-17" points="249.87 295.38 249.87 304.09 246.68 304.09 251.68 312.75 256.68 304.09 253.48 304.09 253.48 295.38 249.87 295.38"/>
        </g>
      </g>
      <g>
        <g>
          <rect class="cls-58" x="151.97" y="433.55" width="200" height="70.51" rx="10" ry="10"/>
          <rect class="cls-3" x="151.97" y="433.55" width="200" height="70.51" rx="10" ry="10"/>
        </g>
        <text class="cls-8" transform="translate(190.99 446.02)"><tspan x="0" y="0">HTR </tspan><tspan class="cls-2" x="22.35" y="0">I</tspan><tspan x="25.45" y="0">de</tspan><tspan class="cls-14" x="37.82" y="0">n</tspan><tspan class="cls-47" x="44.2" y="0">tifi</tspan><tspan class="cls-30" x="57.72" y="0">c</tspan><tspan class="cls-59" x="62.72" y="0">a</tspan><tspan class="cls-47" x="68.44" y="0">tion Phase </tspan></text>
        <g>
          <rect class="cls-3" x="161.97" y="455.01" width="180" height="38.3" rx="10" ry="10"/>
          <text class="cls-9" transform="translate(202.87 466)"><tspan x="0" y="0">Ide</tspan><tspan class="cls-13" x="11.74" y="0">n</tspan><tspan x="16.69" y="0">tify HTRs using tuned </tspan><tspan x="-7.82" y="10.8">pa</tspan><tspan class="cls-19" x="1.64" y="10.8">r</tspan><tspan x="4.54" y="10.8">ame</tspan><tspan class="cls-40" x="20.89" y="10.8">t</tspan><tspan x="23.81" y="10.8">ers and t</tspan><tspan class="cls-27" x="56.03" y="10.8">r</tspan><tspan x="58.93" y="10.8">ained model</tspan><tspan x="25.66" y="21.6">(</tspan><tspan class="cls-20" x="28.21" y="21.6">D</tspan><tspan x="34.24" y="21.6">epl</tspan><tspan class="cls-44" x="46" y="21.6">o</tspan><tspan x="50.88" y="21.6">y</tspan><tspan class="cls-23" x="55.11" y="21.6"> </tspan><tspan class="cls-10" x="56.65" y="21.6">T</tspan><tspan x="60.55" y="21.6">a</tspan><tspan class="cls-37" x="64.89" y="21.6">b</tspan><tspan class="cls-28" x="69.98" y="21.6">)</tspan></text>
        </g>
      </g>
      <g>
        <path d="M25.45,128.08c.38-.06.87-.12,1.5-.12.77,0,1.34.18,1.7.5.33.29.53.73.53,1.27s-.16.98-.47,1.3c-.41.44-1.09.67-1.85.67-.23,0-.45,0-.63-.05v2.43h-.78v-6ZM26.23,131.01c.17.04.39.06.65.06.95,0,1.52-.46,1.52-1.3s-.57-1.19-1.43-1.19c-.34,0-.6.03-.74.06v2.36Z"/>
        <path d="M30.07,131.08c0-.51,0-.95-.04-1.36h.69l.03.86h.04c.2-.59.68-.95,1.21-.95.09,0,.15,0,.23.03v.75c-.08-.02-.16-.03-.27-.03-.56,0-.95.42-1.06,1.02-.02.11-.04.23-.04.37v2.32h-.78v-3Z"/>
        <path d="M33.36,132.04c.02,1.07.7,1.51,1.49,1.51.57,0,.91-.1,1.21-.23l.13.57c-.28.13-.76.27-1.45.27-1.34,0-2.14-.88-2.14-2.2s.77-2.35,2.04-2.35c1.42,0,1.8,1.25,1.8,2.05,0,.16-.02.29-.03.37h-3.06ZM35.68,131.48c0-.5-.21-1.29-1.1-1.29-.8,0-1.15.74-1.22,1.29h2.31Z"/>
        <path d="M37.43,131.08c0-.51,0-.95-.04-1.36h.69l.03.86h.04c.2-.59.68-.95,1.21-.95.09,0,.15,0,.22.03v.75c-.08-.02-.16-.03-.27-.03-.56,0-.95.42-1.06,1.02-.02.11-.04.23-.04.37v2.32h-.78v-3Z"/>
        <path d="M40.72,132.04c.02,1.07.7,1.51,1.49,1.51.57,0,.91-.1,1.21-.23l.13.57c-.28.13-.76.27-1.45.27-1.34,0-2.14-.88-2.14-2.2s.77-2.35,2.04-2.35c1.42,0,1.8,1.25,1.8,2.05,0,.16-.02.29-.03.37h-3.06ZM43.05,131.48c0-.5-.21-1.29-1.1-1.29-.8,0-1.15.74-1.22,1.29h2.31Z"/>
        <path d="M47.76,133.4h-.02c-.23.43-.72.77-1.42.77-1.02,0-1.85-.88-1.85-2.21,0-1.63,1.05-2.35,1.97-2.35.68,0,1.13.33,1.34.76h.02l.03-.66h.75c-.02.37-.03.75-.03,1.2v4.94h-.79v-2.46ZM47.76,131.49c0-.11,0-.23-.04-.33-.12-.49-.54-.9-1.13-.9-.82,0-1.31.69-1.31,1.67,0,.86.41,1.62,1.29,1.62.51,0,.95-.31,1.13-.86.04-.11.06-.26.06-.38v-.82Z"/>
        <path d="M53.51,132.89c0,.45,0,.85.04,1.19h-.7l-.04-.71h-.02c-.21.35-.67.81-1.44.81-.68,0-1.5-.38-1.5-1.91v-2.55h.79v2.41c0,.83.25,1.39.97,1.39.53,0,.9-.37,1.04-.72.04-.12.07-.26.07-.41v-2.67h.79v3.17Z"/>
        <path d="M55.7,128.5c0,.27-.19.49-.5.49-.28,0-.48-.22-.48-.49s.21-.5.5-.5.49.22.49.5ZM54.82,134.08v-4.36h.79v4.36h-.79Z"/>
        <path d="M56.82,133.27c.23.15.65.31,1.04.31.58,0,.85-.29.85-.65s-.23-.58-.81-.8c-.78-.28-1.15-.71-1.15-1.23,0-.7.57-1.28,1.5-1.28.44,0,.83.13,1.07.27l-.2.58c-.17-.11-.49-.25-.89-.25-.47,0-.73.27-.73.59,0,.36.26.52.83.74.76.29,1.14.67,1.14,1.31,0,.77-.59,1.31-1.63,1.31-.48,0-.92-.12-1.22-.3l.2-.6Z"/>
        <path d="M61.37,128.5c0,.27-.19.49-.5.49-.28,0-.48-.22-.48-.49s.21-.5.5-.5.49.22.49.5ZM60.49,134.08v-4.36h.79v4.36h-.79Z"/>
        <path d="M63.55,128.47v1.25h1.13v.6h-1.13v2.35c0,.54.15.85.59.85.21,0,.36-.03.46-.05l.04.59c-.15.06-.4.11-.7.11-.37,0-.67-.12-.85-.33-.23-.23-.31-.62-.31-1.13v-2.38h-.68v-.6h.68v-1.04l.77-.21Z"/>
        <path d="M65.96,132.04c.02,1.07.7,1.51,1.49,1.51.57,0,.91-.1,1.21-.23l.13.57c-.28.13-.76.27-1.45.27-1.34,0-2.14-.88-2.14-2.2s.77-2.35,2.04-2.35c1.42,0,1.8,1.25,1.8,2.05,0,.16-.02.29-.03.37h-3.06ZM68.28,131.48c0-.5-.21-1.29-1.1-1.29-.8,0-1.15.74-1.22,1.29h2.31Z"/>
        <path d="M69.84,130.44c0-.33.23-.57.54-.57s.52.23.53.57c0,.32-.21.56-.54.56-.32,0-.53-.24-.53-.56ZM69.84,133.62c0-.33.23-.57.54-.57s.52.23.53.57c0,.31-.21.56-.54.56-.32,0-.53-.24-.53-.56Z"/>
        <path d="M4.78,138.81v2.54h2.94v-2.54h.79v6.07h-.79v-2.84h-2.94v2.84h-.78v-6.07h.78Z"/>
        <path d="M11.02,139.48h-1.85v-.67h4.49v.67h-1.85v5.4h-.79v-5.4Z"/>
        <path d="M14.34,138.89c.4-.08.96-.13,1.5-.13.84,0,1.38.15,1.76.5.31.27.48.68.48,1.15,0,.8-.5,1.33-1.14,1.55v.03c.47.16.75.59.89,1.22.2.85.34,1.43.47,1.67h-.81c-.1-.17-.23-.69-.41-1.45-.18-.84-.5-1.15-1.22-1.18h-.74v2.63h-.78v-5.99ZM15.12,141.66h.8c.84,0,1.37-.46,1.37-1.15,0-.78-.57-1.12-1.4-1.13-.38,0-.65.04-.77.07v2.21Z"/>
        <path d="M22.01,139.27v1.25h1.13v.6h-1.13v2.35c0,.54.15.85.59.85.21,0,.36-.03.46-.05l.04.59c-.15.06-.4.11-.7.11-.37,0-.67-.12-.85-.33-.23-.23-.31-.62-.31-1.13v-2.38h-.68v-.6h.68v-1.04l.77-.21Z"/>
        <path d="M24.92,139.3c0,.27-.19.49-.5.49-.28,0-.48-.22-.48-.49s.21-.5.5-.5.49.22.49.5ZM24.04,144.88v-4.36h.79v4.36h-.79Z"/>
        <path d="M26.14,141.7c0-.45,0-.82-.04-1.18h.69l.04.7h.03c.24-.41.65-.8,1.37-.8.59,0,1.04.36,1.23.87h.02c.14-.24.31-.43.49-.57.26-.2.55-.31.96-.31.58,0,1.43.38,1.43,1.89v2.57h-.77v-2.47c0-.84-.31-1.34-.95-1.34-.45,0-.8.33-.94.72-.04.11-.06.25-.06.4v2.69h-.77v-2.61c0-.69-.31-1.2-.91-1.2-.5,0-.85.4-.98.79-.05.12-.06.25-.06.39v2.63h-.77v-3.18Z"/>
        <path d="M34.09,142.84c.02,1.07.7,1.51,1.49,1.51.57,0,.91-.1,1.21-.23l.13.57c-.28.13-.76.27-1.45.27-1.34,0-2.14-.88-2.14-2.2s.77-2.35,2.04-2.35c1.42,0,1.8,1.25,1.8,2.05,0,.16-.02.29-.03.37h-3.06ZM36.41,142.28c0-.5-.21-1.29-1.1-1.29-.8,0-1.15.74-1.22,1.29h2.31Z"/>
        <path d="M38.05,144.07c.23.15.65.31,1.04.31.58,0,.85-.29.85-.65s-.23-.58-.81-.8c-.78-.28-1.15-.71-1.15-1.23,0-.7.57-1.28,1.5-1.28.44,0,.83.13,1.07.27l-.2.58c-.17-.11-.49-.25-.89-.25-.47,0-.73.27-.73.59,0,.36.26.52.83.74.76.29,1.14.67,1.14,1.31,0,.77-.59,1.31-1.63,1.31-.48,0-.92-.12-1.22-.3l.2-.6Z"/>
        <path d="M42.68,139.27v1.25h1.13v.6h-1.13v2.35c0,.54.15.85.59.85.21,0,.36-.03.46-.05l.04.59c-.15.06-.4.11-.7.11-.37,0-.67-.12-.85-.33-.23-.23-.31-.62-.31-1.13v-2.38h-.68v-.6h.68v-1.04l.77-.21Z"/>
        <path d="M47.11,144.88l-.06-.55h-.03c-.24.34-.71.65-1.33.65-.88,0-1.33-.62-1.33-1.25,0-1.05.94-1.63,2.62-1.62v-.09c0-.36-.1-1.01-.99-1.01-.41,0-.83.13-1.13.32l-.18-.52c.36-.23.88-.39,1.43-.39,1.33,0,1.66.91,1.66,1.78v1.63c0,.38.02.75.07,1.04h-.72ZM47,142.65c-.86-.02-1.85.13-1.85.98,0,.51.34.76.75.76.57,0,.93-.36,1.05-.73.03-.08.04-.17.04-.25v-.76Z"/>
        <path d="M49.04,141.7c0-.45,0-.82-.04-1.18h.69l.04.7h.03c.24-.41.65-.8,1.37-.8.59,0,1.04.36,1.23.87h.02c.14-.24.31-.43.49-.57.26-.2.55-.31.96-.31.58,0,1.43.38,1.43,1.89v2.57h-.77v-2.47c0-.84-.31-1.34-.95-1.34-.45,0-.8.33-.94.72-.04.11-.06.25-.06.4v2.69h-.77v-2.61c0-.69-.31-1.2-.91-1.2-.5,0-.85.4-.98.79-.05.12-.06.25-.06.39v2.63h-.77v-3.18Z"/>
        <path d="M56.55,141.94c0-.56-.02-1.01-.04-1.42h.71l.04.75h.02c.32-.53.84-.85,1.55-.85,1.05,0,1.85.89,1.85,2.21,0,1.57-.95,2.34-1.98,2.34-.58,0-1.08-.25-1.34-.68h-.02v2.37h-.78v-4.72ZM57.33,143.1c0,.12.02.23.04.32.14.55.62.93,1.19.93.84,0,1.32-.68,1.32-1.68,0-.87-.46-1.62-1.3-1.62-.54,0-1.04.39-1.2.98-.03.1-.05.22-.05.32v.75Z"/>
        <path d="M61.56,144.07c.23.15.65.31,1.04.31.58,0,.85-.29.85-.65s-.23-.58-.81-.8c-.78-.28-1.15-.71-1.15-1.23,0-.7.57-1.28,1.5-1.28.44,0,.83.13,1.07.27l-.2.58c-.17-.11-.49-.25-.89-.25-.47,0-.73.27-.73.59,0,.36.26.52.83.74.76.29,1.14.67,1.14,1.31,0,.77-.59,1.31-1.63,1.31-.48,0-.92-.12-1.22-.3l.2-.6Z"/>
        <path d="M67.22,144.88v-3.75h-.61v-.6h.61v-.21c0-.61.13-1.17.5-1.52.3-.29.69-.4,1.06-.4.28,0,.52.06.68.13l-.11.61c-.12-.05-.28-.1-.5-.1-.68,0-.85.59-.85,1.26v.23h1.05v.6h-1.05v3.75h-.78Z"/>
        <path d="M73.59,142.66c0,1.61-1.12,2.31-2.17,2.31-1.18,0-2.09-.86-2.09-2.24,0-1.46.95-2.31,2.16-2.31s2.1.91,2.1,2.24ZM70.14,142.71c0,.95.55,1.67,1.32,1.67s1.32-.71,1.32-1.69c0-.74-.37-1.67-1.31-1.67s-1.34.86-1.34,1.69Z"/>
        <path d="M74.59,141.88c0-.51,0-.95-.04-1.36h.69l.03.86h.04c.2-.59.68-.95,1.21-.95.09,0,.15,0,.23.03v.75c-.08-.02-.16-.03-.27-.03-.56,0-.95.42-1.06,1.02-.02.11-.04.23-.04.37v2.32h-.78v-3Z"/>
        <path d="M80.91,139.77h-.02l-1.02.55-.15-.6,1.28-.68h.67v5.85h-.77v-5.11Z"/>
        <path d="M85.89,142.15v.59h-2.22v-.59h2.22Z"/>
        <path d="M86.76,143.97c.23.14.75.37,1.3.37,1.02,0,1.33-.65,1.32-1.13,0-.82-.75-1.17-1.51-1.17h-.44v-.59h.44c.58,0,1.31-.3,1.31-.99,0-.47-.3-.88-1.03-.88-.47,0-.92.21-1.17.39l-.21-.58c.31-.23.9-.45,1.53-.45,1.15,0,1.67.68,1.67,1.4,0,.6-.36,1.12-1.08,1.38v.02c.72.14,1.31.68,1.31,1.5,0,.94-.73,1.76-2.13,1.76-.66,0-1.23-.21-1.52-.4l.22-.61Z"/>
        <path d="M6.53,151.32l.85,2.45c.14.4.26.76.35,1.12h.03c.1-.36.23-.72.37-1.12l.85-2.45h.83l-1.71,4.36h-.76l-1.66-4.36h.85Z"/>
        <path d="M11.44,150.1c0,.27-.19.49-.5.49-.28,0-.48-.22-.48-.49s.21-.5.5-.5.49.22.49.5ZM10.56,155.68v-4.36h.79v4.36h-.79Z"/>
        <path d="M16.43,149.29v5.27c0,.39,0,.83.04,1.13h-.71l-.04-.76h-.02c-.24.49-.77.86-1.49.86-1.05,0-1.86-.89-1.86-2.21,0-1.45.89-2.34,1.95-2.34.67,0,1.12.32,1.31.67h.02v-2.6h.79ZM15.63,153.09c0-.1,0-.23-.04-.33-.12-.5-.55-.92-1.14-.92-.82,0-1.31.72-1.31,1.68,0,.88.43,1.61,1.29,1.61.53,0,1.02-.35,1.16-.95.03-.11.04-.22.04-.34v-.76Z"/>
        <path d="M18.18,153.64c.02,1.07.7,1.51,1.49,1.51.57,0,.91-.1,1.21-.23l.13.57c-.28.13-.76.27-1.45.27-1.34,0-2.14-.88-2.14-2.2s.77-2.35,2.04-2.35c1.42,0,1.8,1.25,1.8,2.05,0,.16-.02.29-.03.37h-3.06ZM20.5,153.08c0-.5-.21-1.29-1.1-1.29-.8,0-1.15.74-1.22,1.29h2.31Z"/>
        <path d="M26.19,153.46c0,1.61-1.12,2.31-2.17,2.31-1.18,0-2.09-.86-2.09-2.24,0-1.46.95-2.31,2.16-2.31s2.1.91,2.1,2.24ZM22.73,153.51c0,.95.55,1.67,1.32,1.67s1.32-.71,1.32-1.69c0-.74-.37-1.67-1.31-1.67s-1.34.86-1.34,1.69Z"/>
        <path d="M27.08,154.87c.23.15.65.31,1.04.31.58,0,.85-.29.85-.65s-.23-.58-.81-.8c-.78-.28-1.15-.71-1.15-1.23,0-.7.57-1.28,1.5-1.28.44,0,.83.13,1.07.27l-.2.58c-.17-.11-.49-.25-.89-.25-.47,0-.73.27-.73.59,0,.36.26.52.83.74.76.29,1.14.67,1.14,1.31,0,.77-.59,1.31-1.63,1.31-.48,0-.92-.12-1.22-.3l.2-.6Z"/>
        <path d="M33.61,150.07v1.25h1.13v.6h-1.13v2.35c0,.54.15.85.59.85.21,0,.36-.03.46-.05l.04.59c-.15.06-.4.11-.7.11-.37,0-.67-.12-.85-.33-.23-.23-.31-.62-.31-1.13v-2.38h-.68v-.6h.68v-1.04l.77-.21Z"/>
        <path d="M39.53,153.46c0,1.61-1.12,2.31-2.17,2.31-1.18,0-2.09-.86-2.09-2.24,0-1.46.95-2.31,2.16-2.31s2.1.91,2.1,2.24ZM36.07,153.51c0,.95.55,1.67,1.32,1.67s1.32-.71,1.32-1.69c0-.74-.37-1.67-1.31-1.67s-1.34.86-1.34,1.69Z"/>
        <path d="M46.19,151.32c-.02.32-.04.67-.04,1.2v2.53c0,1-.2,1.61-.62,1.99-.42.4-1.04.52-1.58.52s-1.1-.13-1.45-.36l.2-.6c.29.18.74.34,1.28.34.81,0,1.4-.42,1.4-1.52v-.49h-.02c-.24.4-.71.73-1.39.73-1.08,0-1.85-.92-1.85-2.12,0-1.48.96-2.31,1.96-2.31.76,0,1.17.4,1.36.76h.02l.04-.66h.69ZM45.37,153.04c0-.14,0-.25-.05-.36-.14-.46-.53-.84-1.11-.84-.76,0-1.3.64-1.3,1.65,0,.85.43,1.57,1.29,1.57.49,0,.93-.31,1.1-.81.05-.13.06-.29.06-.42v-.78Z"/>
        <path d="M51.11,154.49c0,.45,0,.85.04,1.19h-.7l-.04-.71h-.02c-.21.35-.67.81-1.44.81-.68,0-1.5-.38-1.5-1.91v-2.55h.79v2.41c0,.83.25,1.39.97,1.39.53,0,.9-.37,1.04-.72.04-.12.07-.26.07-.41v-2.67h.79v3.17Z"/>
        <path d="M53.31,150.1c0,.27-.19.49-.5.49-.28,0-.48-.22-.48-.49s.21-.5.5-.5.49.22.49.5ZM52.42,155.68v-4.36h.79v4.36h-.79Z"/>
        <path d="M58.29,149.29v5.27c0,.39,0,.83.04,1.13h-.71l-.04-.76h-.02c-.24.49-.77.86-1.49.86-1.05,0-1.86-.89-1.86-2.21,0-1.45.89-2.34,1.95-2.34.67,0,1.12.32,1.31.67h.02v-2.6h.79ZM57.5,153.09c0-.1,0-.23-.04-.33-.12-.5-.55-.92-1.14-.92-.82,0-1.31.72-1.31,1.68,0,.88.43,1.61,1.29,1.61.53,0,1.02-.35,1.16-.95.03-.11.04-.22.04-.34v-.76Z"/>
        <path d="M60.05,153.64c.02,1.07.7,1.51,1.49,1.51.57,0,.91-.1,1.21-.23l.13.57c-.28.13-.76.27-1.45.27-1.34,0-2.14-.88-2.14-2.2s.77-2.35,2.04-2.35c1.42,0,1.8,1.25,1.8,2.05,0,.16-.02.29-.03.37h-3.06ZM62.37,153.08c0-.5-.21-1.29-1.1-1.29-.8,0-1.15.74-1.22,1.29h2.31Z"/>
        <path d="M66.98,150.07v1.25h1.13v.6h-1.13v2.35c0,.54.15.85.59.85.21,0,.36-.03.46-.05l.04.59c-.15.06-.4.11-.7.11-.37,0-.67-.12-.85-.33-.23-.23-.31-.62-.31-1.13v-2.38h-.68v-.6h.68v-1.04l.77-.21Z"/>
        <path d="M72.65,154.49c0,.45,0,.85.04,1.19h-.7l-.04-.71h-.02c-.21.35-.67.81-1.44.81-.68,0-1.5-.38-1.5-1.91v-2.55h.79v2.41c0,.83.25,1.39.97,1.39.53,0,.9-.37,1.04-.72.04-.12.07-.26.07-.41v-2.67h.79v3.17Z"/>
        <path d="M73.96,152.5c0-.45,0-.82-.04-1.18h.7l.05.72h.02c.22-.41.72-.82,1.44-.82.6,0,1.54.36,1.54,1.85v2.6h-.79v-2.51c0-.7-.26-1.29-1.01-1.29-.52,0-.93.37-1.06.81-.04.1-.05.23-.05.37v2.62h-.79v-3.18Z"/>
        <path d="M79.84,150.1c0,.27-.19.49-.5.49-.28,0-.48-.22-.48-.49s.21-.5.5-.5.49.22.49.5ZM78.96,155.68v-4.36h.79v4.36h-.79Z"/>
        <path d="M81.06,152.5c0-.45,0-.82-.04-1.18h.7l.04.72h.02c.22-.41.72-.82,1.44-.82.6,0,1.54.36,1.54,1.85v2.6h-.79v-2.51c0-.7-.26-1.29-1.01-1.29-.52,0-.93.37-1.06.81-.04.1-.05.23-.05.37v2.62h-.79v-3.18Z"/>
        <path d="M89.81,151.32c-.02.32-.04.67-.04,1.2v2.53c0,1-.2,1.61-.62,1.99-.42.4-1.04.52-1.58.52s-1.1-.13-1.45-.36l.2-.6c.29.18.74.34,1.28.34.81,0,1.4-.42,1.4-1.52v-.49h-.02c-.24.4-.71.73-1.39.73-1.08,0-1.85-.92-1.85-2.12,0-1.48.96-2.31,1.96-2.31.76,0,1.17.4,1.36.76h.02l.04-.66h.69ZM88.99,153.04c0-.14,0-.25-.05-.36-.14-.46-.53-.84-1.11-.84-.76,0-1.3.64-1.3,1.65,0,.85.43,1.57,1.29,1.57.49,0,.93-.31,1.1-.81.05-.13.06-.29.06-.42v-.78Z"/>
      </g>
      <rect class="cls-5" x=".5" y="123.09" width="95" height="38.3" rx="10" ry="10"/>
      <g>
        <g>
          <rect class="cls-4" x="246.68" y="184.5" width="10" height="17.37"/>
          <polygon class="cls-17" points="249.87 184.5 249.87 193.21 246.68 193.21 251.68 201.87 256.68 193.21 253.48 193.21 253.48 184.5 249.87 184.5"/>
        </g>
        <g>
          <g>
            <rect class="cls-58" x="98.49" y="100.11" width="297.19" height="84.39" rx="12" ry="12"/>
            <rect class="cls-3" x="98.49" y="100.11" width="297.19" height="84.39" rx="12" ry="12"/>
          </g>
          <text class="cls-8" transform="translate(161.01 112.34)"><tspan class="cls-6" x="0" y="0">S</tspan><tspan x="6.02" y="0">etup Phase </tspan><tspan class="cls-31" x="62.52" y="0">(</tspan><tspan class="cls-18" x="66.22" y="0">T</tspan><tspan class="cls-47" x="71.65" y="0">uning HTR De</tspan><tspan class="cls-22" x="138.44" y="0">t</tspan><tspan x="142.43" y="0">e</tspan><tspan class="cls-11" x="148.23" y="0">c</tspan><tspan class="cls-22" x="153.37" y="0">t</tspan><tspan x="157.35" y="0">or)</tspan></text>
          <g>
            <g>
              <g>
                <path class="cls-58" d="M388.92,152.05c0,5.5-4.5,10.02-10,10.04l-132.05.54c-5.5.02-10-4.46-10-9.96v-18.3c0-5.5,4.5-10.02,10-10.04l132.05-.54c5.5-.02,10,4.46,10,9.96v18.3Z"/>
                <path class="cls-3" d="M388.92,152.05c0,5.5-4.5,10.02-10,10.04l-132.05.54c-5.5.02-10-4.46-10-9.96v-18.3c0-5.5,4.5-10.02,10-10.04l132.05-.54c5.5-.02,10,4.46,10,9.96v18.3Z"/>
              </g>
              <g>
                <path d="M263.6,138.55l-.63,1.91h-.81l2.06-6.07h.95l2.07,6.07h-.84l-.65-1.91h-2.15ZM265.59,137.93l-.59-1.75c-.14-.4-.23-.76-.32-1.11h-.02c-.09.36-.19.73-.31,1.1l-.59,1.76h1.83Z"/>
                <path d="M268.08,134.06h.79v6.39h-.79v-6.39Z"/>
                <path d="M270.2,134.06h.79v6.39h-.79v-6.39Z"/>
                <path d="M275.04,134.39v2.54h2.94v-2.54h.79v6.07h-.79v-2.84h-2.94v2.84h-.78v-6.07h.78Z"/>
                <path d="M281.28,135.05h-1.85v-.67h4.49v.67h-1.85v5.4h-.79v-5.4Z"/>
                <path d="M284.6,134.47c.4-.08.96-.13,1.5-.13.84,0,1.38.15,1.76.5.31.27.48.68.48,1.15,0,.8-.5,1.33-1.14,1.55v.03c.47.16.75.59.89,1.22.2.85.34,1.43.47,1.67h-.81c-.1-.17-.23-.69-.41-1.45-.18-.84-.5-1.15-1.22-1.18h-.74v2.63h-.78v-5.99ZM285.38,137.23h.8c.84,0,1.37-.46,1.37-1.15,0-.78-.57-1.12-1.4-1.13-.38,0-.65.04-.77.07v2.21Z"/>
                <path d="M289.31,139.65c.23.15.65.31,1.04.31.58,0,.85-.29.85-.65s-.23-.58-.81-.8c-.78-.28-1.15-.71-1.15-1.23,0-.7.57-1.28,1.5-1.28.44,0,.83.13,1.07.27l-.2.58c-.17-.11-.49-.25-.89-.25-.47,0-.73.27-.73.59,0,.36.26.52.83.74.76.29,1.14.67,1.14,1.31,0,.77-.59,1.31-1.63,1.31-.48,0-.92-.12-1.22-.3l.2-.6Z"/>
                <path d="M295.77,134.87c0,.27-.19.49-.5.49-.28,0-.48-.22-.48-.49s.21-.5.5-.5.49.22.49.5ZM294.89,140.46v-4.36h.79v4.36h-.79Z"/>
                <path d="M296.99,137.28c0-.45,0-.82-.04-1.18h.7l.05.72h.02c.22-.41.72-.82,1.44-.82.6,0,1.54.36,1.54,1.85v2.6h-.79v-2.51c0-.7-.26-1.29-1.01-1.29-.52,0-.93.37-1.06.81-.04.1-.05.23-.05.37v2.62h-.79v-3.18Z"/>
                <path d="M303.79,139.65c.23.15.65.31,1.04.31.58,0,.85-.29.85-.65s-.23-.58-.81-.8c-.78-.28-1.15-.71-1.15-1.23,0-.7.57-1.28,1.5-1.28.44,0,.83.13,1.07.27l-.2.58c-.17-.11-.49-.25-.89-.25-.47,0-.73.27-.73.59,0,.36.26.52.83.74.76.29,1.14.67,1.14,1.31,0,.77-.59,1.31-1.63,1.31-.48,0-.92-.12-1.22-.3l.2-.6Z"/>
                <path d="M309.87,140.46l-.06-.55h-.03c-.24.34-.71.65-1.33.65-.88,0-1.33-.62-1.33-1.25,0-1.05.94-1.63,2.62-1.62v-.09c0-.36-.1-1.01-.99-1.01-.41,0-.83.13-1.13.32l-.18-.52c.36-.23.88-.39,1.43-.39,1.33,0,1.66.91,1.66,1.78v1.63c0,.38.02.75.07,1.04h-.72ZM309.76,138.23c-.86-.02-1.85.14-1.85.98,0,.51.34.76.75.76.57,0,.93-.36,1.05-.73.03-.08.04-.17.04-.25v-.76Z"/>
                <path d="M311.8,137.28c0-.45,0-.82-.04-1.18h.69l.04.7h.03c.24-.41.65-.8,1.37-.8.59,0,1.04.36,1.23.87h.02c.14-.24.31-.43.49-.57.26-.2.55-.31.96-.31.58,0,1.43.38,1.43,1.89v2.57h-.77v-2.47c0-.84-.31-1.34-.95-1.34-.45,0-.8.33-.94.72-.04.11-.06.25-.06.4v2.69h-.77v-2.61c0-.69-.31-1.2-.91-1.2-.5,0-.85.4-.98.79-.05.12-.06.25-.06.39v2.63h-.77v-3.18Z"/>
                <path d="M319.3,137.52c0-.56-.02-1.01-.04-1.42h.71l.04.75h.02c.32-.53.84-.85,1.55-.85,1.05,0,1.85.89,1.85,2.21,0,1.57-.95,2.34-1.98,2.34-.58,0-1.08-.25-1.34-.68h-.02v2.37h-.78v-4.72ZM320.09,138.68c0,.12.02.23.04.32.14.55.62.93,1.19.93.84,0,1.32-.68,1.32-1.68,0-.87-.46-1.62-1.3-1.62-.54,0-1.04.39-1.2.98-.03.1-.05.22-.05.32v.75Z"/>
                <path d="M324.42,134.06h.79v6.39h-.79v-6.39Z"/>
                <path d="M326.99,138.42c.02,1.07.7,1.51,1.49,1.51.57,0,.91-.1,1.21-.23l.13.57c-.28.13-.76.27-1.45.27-1.34,0-2.14-.88-2.14-2.2s.77-2.35,2.04-2.35c1.42,0,1.8,1.25,1.8,2.05,0,.16-.02.29-.03.37h-3.06ZM329.31,137.85c0-.5-.21-1.29-1.1-1.29-.8,0-1.15.74-1.22,1.29h2.31Z"/>
                <path d="M333.27,136.1l.85,2.45c.14.4.26.76.35,1.12h.03c.1-.36.23-.72.37-1.12l.85-2.45h.83l-1.71,4.36h-.76l-1.66-4.36h.85Z"/>
                <path d="M338.18,134.87c0,.27-.19.49-.5.49-.28,0-.48-.22-.48-.49s.21-.5.5-.5.49.22.49.5ZM337.29,140.46v-4.36h.79v4.36h-.79Z"/>
                <path d="M343.16,134.06v5.27c0,.39,0,.83.04,1.13h-.71l-.04-.76h-.02c-.24.49-.77.86-1.49.86-1.05,0-1.86-.89-1.86-2.21,0-1.45.89-2.34,1.95-2.34.67,0,1.12.32,1.31.67h.02v-2.6h.79ZM342.37,137.87c0-.1,0-.23-.04-.33-.12-.5-.55-.92-1.14-.92-.82,0-1.31.72-1.31,1.68,0,.88.43,1.61,1.29,1.61.53,0,1.02-.35,1.16-.95.03-.11.04-.22.04-.34v-.76Z"/>
                <path d="M344.92,138.42c.02,1.07.7,1.51,1.49,1.51.57,0,.91-.1,1.21-.23l.13.57c-.28.13-.76.27-1.45.27-1.34,0-2.14-.88-2.14-2.2s.77-2.35,2.04-2.35c1.42,0,1.8,1.25,1.8,2.05,0,.16-.02.29-.03.37h-3.06ZM347.24,137.85c0-.5-.21-1.29-1.1-1.29-.8,0-1.15.74-1.22,1.29h2.31Z"/>
                <path d="M352.93,138.24c0,1.61-1.12,2.31-2.17,2.31-1.18,0-2.09-.86-2.09-2.24,0-1.46.95-2.31,2.16-2.31s2.1.91,2.1,2.24ZM349.47,138.29c0,.95.55,1.67,1.32,1.67s1.32-.71,1.32-1.69c0-.74-.37-1.67-1.31-1.67s-1.34.86-1.34,1.69Z"/>
                <path d="M355.65,134.21c-.66.88-1.13,2.05-1.13,3.68s.5,2.75,1.13,3.66h-.62c-.57-.75-1.18-1.9-1.18-3.66,0-1.77.61-2.93,1.18-3.68h.62Z"/>
                <path d="M356.37,139.65c.23.15.65.31,1.04.31.58,0,.85-.29.85-.65s-.23-.58-.81-.8c-.78-.28-1.15-.71-1.15-1.23,0-.7.57-1.28,1.5-1.28.44,0,.83.13,1.07.27l-.2.58c-.17-.11-.49-.25-.89-.25-.47,0-.73.27-.73.59,0,.36.26.52.83.74.76.29,1.14.67,1.14,1.31,0,.77-.59,1.31-1.63,1.31-.48,0-.92-.12-1.22-.3l.2-.6Z"/>
                <path d="M359.57,141.54c.64-.89,1.13-2.06,1.13-3.68s-.49-2.76-1.13-3.66h.61c.58.74,1.18,1.89,1.18,3.66s-.6,2.91-1.18,3.67h-.61Z"/>
                <path d="M263.9,145.67c0,.27-.19.49-.5.49-.28,0-.48-.22-.48-.49s.21-.5.5-.5.49.22.49.5ZM263.02,151.26v-4.36h.79v4.36h-.79Z"/>
                <path d="M268.89,144.86v5.27c0,.39,0,.83.04,1.13h-.71l-.04-.76h-.02c-.24.49-.77.86-1.49.86-1.05,0-1.86-.89-1.86-2.21,0-1.45.89-2.34,1.95-2.34.67,0,1.12.32,1.31.67h.02v-2.6h.79ZM268.1,148.67c0-.1,0-.23-.04-.33-.12-.5-.55-.92-1.14-.92-.82,0-1.31.72-1.31,1.68,0,.88.43,1.61,1.29,1.61.53,0,1.02-.35,1.16-.95.03-.11.04-.22.04-.34v-.76Z"/>
                <path d="M270.64,149.22c.02,1.07.7,1.51,1.49,1.51.57,0,.91-.1,1.21-.23l.13.57c-.28.13-.76.27-1.45.27-1.34,0-2.14-.88-2.14-2.2s.77-2.35,2.04-2.35c1.42,0,1.8,1.25,1.8,2.05,0,.16-.02.29-.03.37h-3.06ZM272.96,148.65c0-.5-.21-1.29-1.1-1.29-.8,0-1.15.74-1.22,1.29h2.31Z"/>
                <path d="M274.71,148.08c0-.45,0-.82-.04-1.18h.7l.04.72h.02c.22-.41.72-.82,1.44-.82.6,0,1.54.36,1.54,1.85v2.6h-.79v-2.51c0-.7-.26-1.29-1.01-1.29-.52,0-.93.37-1.06.81-.04.1-.05.23-.05.37v2.62h-.79v-3.18Z"/>
                <path d="M280.62,145.65v1.25h1.13v.6h-1.13v2.35c0,.54.15.85.59.85.21,0,.36-.03.46-.05l.04.59c-.15.06-.4.11-.7.11-.37,0-.67-.12-.85-.33-.23-.23-.31-.62-.31-1.13v-2.38h-.68v-.6h.68v-1.04l.77-.21Z"/>
                <path d="M283.53,145.67c0,.27-.19.49-.5.49-.28,0-.48-.22-.48-.49s.21-.5.5-.5.49.22.49.5ZM282.65,151.26v-4.36h.79v4.36h-.79Z"/>
                <path d="M284.83,151.26v-3.75h-.61v-.6h.61v-.23c0-1.15.68-1.9,1.9-1.9.41,0,.88.13,1.11.29l-.23.6c-.19-.14-.53-.25-.92-.25-.84,0-1.08.58-1.08,1.28v.22h2.53v4.36h-.78v-3.75h-1.75v3.75h-.78Z"/>
                <path d="M289.9,149.22c.02,1.07.7,1.51,1.49,1.51.57,0,.91-.1,1.21-.23l.13.57c-.28.13-.76.27-1.45.27-1.34,0-2.14-.88-2.14-2.2s.77-2.35,2.04-2.35c1.42,0,1.8,1.25,1.8,2.05,0,.16-.02.29-.03.37h-3.06ZM292.22,148.65c0-.5-.21-1.29-1.1-1.29-.8,0-1.15.74-1.22,1.29h2.31Z"/>
                <path d="M297.73,144.86v5.27c0,.39,0,.83.04,1.13h-.71l-.04-.76h-.02c-.24.49-.77.86-1.49.86-1.05,0-1.86-.89-1.86-2.21,0-1.45.89-2.34,1.95-2.34.67,0,1.12.32,1.31.67h.02v-2.6h.79ZM296.94,148.67c0-.1,0-.23-.04-.33-.12-.5-.55-.92-1.14-.92-.82,0-1.31.72-1.31,1.68,0,.88.43,1.61,1.29,1.61.53,0,1.02-.35,1.16-.95.03-.11.04-.22.04-.34v-.76Z"/>
                <path d="M300.92,151.26c.02-.3.04-.74.04-1.13v-5.27h.78v2.74h.02c.28-.49.78-.8,1.49-.8,1.08,0,1.85.9,1.84,2.22,0,1.56-.98,2.33-1.95,2.33-.63,0-1.13-.24-1.46-.82h-.03l-.04.72h-.68ZM301.74,149.51c0,.1.02.2.04.29.15.55.61.93,1.19.93.83,0,1.32-.68,1.32-1.67,0-.87-.45-1.62-1.3-1.62-.54,0-1.04.37-1.21.97-.02.09-.04.2-.04.32v.78Z"/>
                <path d="M306.3,146.9l.95,2.57c.1.29.21.63.28.89h.02c.08-.26.17-.59.28-.91l.86-2.56h.84l-1.19,3.11c-.57,1.49-.95,2.26-1.49,2.73-.39.34-.77.48-.97.51l-.2-.67c.2-.06.46-.19.69-.39.22-.17.49-.48.67-.88.04-.08.06-.14.06-.19s-.02-.11-.05-.21l-1.61-4.02h.86Z"/>
                <path d="M312.97,145.19v2.54h2.94v-2.54h.79v6.07h-.79v-2.84h-2.94v2.84h-.78v-6.07h.78Z"/>
                <path d="M319.21,145.85h-1.85v-.67h4.49v.67h-1.85v5.4h-.79v-5.4Z"/>
                <path d="M322.53,145.27c.4-.08.96-.13,1.5-.13.84,0,1.38.15,1.76.5.31.27.48.68.48,1.15,0,.8-.5,1.33-1.14,1.55v.03c.47.16.75.59.89,1.22.2.85.34,1.43.47,1.67h-.81c-.1-.17-.23-.69-.41-1.45-.18-.84-.5-1.15-1.22-1.18h-.74v2.63h-.78v-5.99ZM323.31,148.03h.8c.84,0,1.37-.46,1.37-1.15,0-.78-.57-1.12-1.4-1.13-.38,0-.65.04-.77.07v2.21Z"/>
                <path d="M329.28,145.27c.48-.07,1.04-.13,1.67-.13,1.13,0,1.93.26,2.46.76.54.5.85,1.2.85,2.18s-.31,1.8-.87,2.36c-.57.57-1.5.87-2.68.87-.56,0-1.03-.03-1.42-.07v-5.97ZM330.06,150.63c.2.04.49.04.79.04,1.67,0,2.58-.94,2.58-2.57,0-1.43-.8-2.34-2.46-2.34-.41,0-.71.04-.92.08v4.79Z"/>
                <path d="M335.72,149.22c.02,1.07.7,1.51,1.49,1.51.57,0,.91-.1,1.21-.23l.13.57c-.28.13-.76.27-1.45.27-1.34,0-2.14-.88-2.14-2.2s.77-2.35,2.04-2.35c1.42,0,1.8,1.25,1.8,2.05,0,.16-.02.29-.03.37h-3.06ZM338.04,148.65c0-.5-.21-1.29-1.1-1.29-.8,0-1.15.74-1.22,1.29h2.31Z"/>
                <path d="M340.74,145.65v1.25h1.13v.6h-1.13v2.35c0,.54.15.85.59.85.21,0,.36-.03.46-.05l.04.59c-.15.06-.4.11-.7.11-.37,0-.67-.12-.85-.33-.23-.23-.31-.62-.31-1.13v-2.38h-.68v-.6h.68v-1.04l.77-.21Z"/>
                <path d="M343.15,149.22c.02,1.07.7,1.51,1.49,1.51.57,0,.91-.1,1.21-.23l.13.57c-.28.13-.76.27-1.45.27-1.34,0-2.14-.88-2.14-2.2s.77-2.35,2.04-2.35c1.42,0,1.8,1.25,1.8,2.05,0,.16-.02.29-.03.37h-3.06ZM345.48,148.65c0-.5-.21-1.29-1.1-1.29-.8,0-1.15.74-1.22,1.29h2.31Z"/>
                <path d="M350.33,151.09c-.21.11-.67.25-1.25.25-1.31,0-2.17-.89-2.17-2.22s.92-2.31,2.34-2.31c.47,0,.88.12,1.1.23l-.18.61c-.19-.11-.49-.21-.92-.21-1,0-1.54.74-1.54,1.65,0,1.01.65,1.63,1.51,1.63.45,0,.75-.12.97-.22l.14.59Z"/>
                <path d="M352.32,145.65v1.25h1.13v.6h-1.13v2.35c0,.54.15.85.59.85.21,0,.36-.03.46-.05l.04.59c-.15.06-.4.11-.7.11-.37,0-.67-.12-.85-.33-.23-.23-.31-.62-.31-1.13v-2.38h-.68v-.6h.68v-1.04l.77-.21Z"/>
                <path d="M358.24,149.04c0,1.61-1.12,2.31-2.17,2.31-1.18,0-2.09-.86-2.09-2.24,0-1.46.95-2.31,2.16-2.31s2.1.91,2.1,2.24ZM354.78,149.09c0,.95.55,1.67,1.32,1.67s1.32-.71,1.32-1.69c0-.74-.37-1.67-1.31-1.67s-1.34.86-1.34,1.69Z"/>
                <path d="M359.24,148.26c0-.51,0-.95-.04-1.36h.69l.03.86h.04c.2-.59.68-.95,1.21-.95.09,0,.15,0,.22.03v.75c-.08-.02-.16-.03-.27-.03-.56,0-.95.42-1.06,1.02-.02.11-.04.23-.04.37v2.32h-.78v-3Z"/>
              </g>
            </g>
            <text class="cls-7" transform="translate(192.26 146.95)"><tspan x="0" y="0">[U</tspan><tspan class="cls-57" x="8.96" y="0">n</tspan><tspan x="14.18" y="0">til]</tspan></text>
            <g>
              <g>
                <rect class="cls-58" x="105.25" y="123.75" width="72" height="38.3" rx="10" ry="10"/>
                <rect class="cls-3" x="105.25" y="123.75" width="72" height="38.3" rx="10" ry="10"/>
              </g>
              <g>
                <path d="M111.82,135.79h-1.85v-.67h4.49v.67h-1.85v5.4h-.79v-5.4Z"/>
                <path d="M118.35,140c0,.45,0,.85.04,1.19h-.7l-.04-.71h-.02c-.21.35-.67.81-1.44.81-.68,0-1.5-.38-1.5-1.91v-2.55h.79v2.41c0,.83.25,1.39.97,1.39.53,0,.9-.37,1.04-.72.04-.12.07-.26.07-.41v-2.67h.79v3.17Z"/>
                <path d="M119.67,138.01c0-.45,0-.82-.04-1.18h.7l.04.72h.02c.22-.41.72-.82,1.44-.82.6,0,1.54.36,1.54,1.85v2.6h-.79v-2.51c0-.7-.26-1.29-1.01-1.29-.52,0-.93.37-1.06.81-.04.1-.05.23-.05.37v2.62h-.79v-3.18Z"/>
                <path d="M125.1,139.15c.02,1.07.7,1.51,1.49,1.51.57,0,.91-.1,1.21-.23l.13.57c-.28.13-.76.27-1.45.27-1.34,0-2.14-.88-2.14-2.2s.77-2.35,2.04-2.35c1.42,0,1.8,1.25,1.8,2.05,0,.16-.02.29-.03.37h-3.06ZM127.43,138.59c0-.5-.21-1.29-1.1-1.29-.8,0-1.15.74-1.22,1.29h2.31Z"/>
                <path d="M131.11,135.19c.38-.06.87-.12,1.5-.12.77,0,1.34.18,1.7.5.33.29.53.73.53,1.27s-.16.98-.47,1.3c-.41.44-1.09.67-1.85.67-.23,0-.45,0-.63-.05v2.43h-.78v-6ZM131.89,138.12c.17.04.39.06.65.06.95,0,1.52-.46,1.52-1.3s-.57-1.19-1.43-1.19c-.34,0-.6.03-.74.06v2.36Z"/>
                <path d="M138.05,141.19l-.06-.55h-.03c-.24.34-.71.65-1.33.65-.88,0-1.33-.62-1.33-1.25,0-1.05.94-1.63,2.62-1.62v-.09c0-.36-.1-1.01-.99-1.01-.4,0-.83.13-1.13.32l-.18-.52c.36-.23.88-.39,1.43-.39,1.33,0,1.66.91,1.66,1.78v1.63c0,.38.02.75.07,1.04h-.72ZM137.93,138.96c-.86-.02-1.85.13-1.85.98,0,.51.34.76.75.76.57,0,.93-.36,1.05-.73.03-.08.05-.17.05-.25v-.76Z"/>
                <path d="M139.97,138.19c0-.51,0-.95-.04-1.36h.69l.03.86h.04c.2-.59.68-.95,1.21-.95.09,0,.15,0,.22.03v.75c-.08-.02-.16-.03-.27-.03-.56,0-.95.42-1.06,1.02-.02.11-.04.23-.04.37v2.32h-.78v-3Z"/>
                <path d="M145.28,141.19l-.06-.55h-.03c-.24.34-.71.65-1.33.65-.88,0-1.33-.62-1.33-1.25,0-1.05.94-1.63,2.62-1.62v-.09c0-.36-.1-1.01-.99-1.01-.4,0-.83.13-1.13.32l-.18-.52c.36-.23.88-.39,1.43-.39,1.33,0,1.66.91,1.66,1.78v1.63c0,.38.02.75.07,1.04h-.72ZM145.17,138.96c-.86-.02-1.85.13-1.85.98,0,.51.34.76.75.76.57,0,.93-.36,1.05-.73.03-.08.05-.17.05-.25v-.76Z"/>
                <path d="M147.21,138.01c0-.45,0-.82-.04-1.18h.69l.04.7h.03c.24-.41.65-.8,1.37-.8.59,0,1.04.36,1.23.87h.02c.14-.24.31-.43.49-.57.26-.2.55-.31.96-.31.58,0,1.43.38,1.43,1.89v2.57h-.77v-2.47c0-.84-.31-1.34-.95-1.34-.45,0-.8.33-.94.72-.04.11-.06.25-.06.4v2.69h-.77v-2.61c0-.69-.31-1.2-.91-1.2-.5,0-.85.4-.98.79-.05.12-.06.25-.06.39v2.63h-.77v-3.18Z"/>
                <path d="M155.15,139.15c.02,1.07.7,1.51,1.49,1.51.57,0,.91-.1,1.21-.23l.13.57c-.28.13-.76.27-1.45.27-1.34,0-2.14-.88-2.14-2.2s.77-2.35,2.04-2.35c1.42,0,1.8,1.25,1.8,2.05,0,.16-.02.29-.03.37h-3.06ZM157.48,138.59c0-.5-.21-1.29-1.1-1.29-.8,0-1.15.74-1.22,1.29h2.31Z"/>
                <path d="M160.18,135.58v1.25h1.13v.6h-1.13v2.35c0,.54.15.85.59.85.21,0,.36-.03.46-.05l.04.59c-.15.06-.4.11-.7.11-.37,0-.67-.12-.85-.33-.23-.23-.31-.62-.31-1.13v-2.38h-.68v-.6h.68v-1.04l.77-.21Z"/>
                <path d="M162.59,139.15c.02,1.07.7,1.51,1.49,1.51.57,0,.91-.1,1.21-.23l.13.57c-.28.13-.76.27-1.45.27-1.34,0-2.14-.88-2.14-2.2s.77-2.35,2.04-2.35c1.42,0,1.8,1.25,1.8,2.05,0,.16-.02.29-.03.37h-3.06ZM164.91,138.59c0-.5-.21-1.29-1.1-1.29-.8,0-1.15.74-1.22,1.29h2.31Z"/>
                <path d="M166.66,138.19c0-.51,0-.95-.04-1.36h.69l.03.86h.04c.2-.59.68-.95,1.21-.95.09,0,.15,0,.23.03v.75c-.08-.02-.16-.03-.27-.03-.56,0-.95.42-1.06,1.02-.02.11-.04.23-.04.37v2.32h-.78v-3Z"/>
                <path d="M169.49,140.38c.23.15.65.31,1.04.31.58,0,.85-.29.85-.65s-.23-.58-.81-.8c-.78-.28-1.15-.71-1.15-1.23,0-.7.57-1.28,1.5-1.28.44,0,.83.13,1.07.27l-.2.58c-.17-.11-.49-.25-.89-.25-.47,0-.73.27-.73.59,0,.36.26.52.83.74.76.29,1.14.67,1.14,1.31,0,.77-.59,1.31-1.63,1.31-.48,0-.92-.12-1.22-.3l.2-.6Z"/>
                <path d="M134.19,145.74c-.66.88-1.13,2.05-1.13,3.68s.5,2.75,1.13,3.66h-.62c-.57-.75-1.18-1.9-1.18-3.66,0-1.77.61-2.93,1.18-3.68h.62Z"/>
                <path d="M136.63,146.59h-1.85v-.67h4.49v.67h-1.85v5.4h-.79v-5.4Z"/>
                <path d="M141.76,151.99l-.06-.55h-.03c-.24.34-.71.65-1.33.65-.88,0-1.33-.62-1.33-1.25,0-1.05.94-1.63,2.62-1.62v-.09c0-.36-.1-1.01-.99-1.01-.4,0-.83.13-1.13.32l-.18-.52c.36-.23.88-.39,1.43-.39,1.33,0,1.66.91,1.66,1.78v1.63c0,.38.02.75.07,1.04h-.72ZM141.65,149.76c-.86-.02-1.85.13-1.85.98,0,.51.34.76.75.76.57,0,.93-.36,1.05-.73.03-.08.05-.17.05-.25v-.76Z"/>
                <path d="M143.65,151.99c.02-.3.04-.74.04-1.13v-5.27h.78v2.74h.02c.28-.49.78-.8,1.49-.8,1.08,0,1.85.9,1.84,2.22,0,1.56-.98,2.33-1.95,2.33-.63,0-1.13-.24-1.46-.82h-.03l-.04.72h-.68ZM144.47,150.24c0,.1.02.2.04.29.15.55.61.93,1.19.93.83,0,1.32-.68,1.32-1.67,0-.87-.45-1.62-1.3-1.62-.54,0-1.04.37-1.21.97-.02.09-.04.2-.04.32v.78Z"/>
                <path d="M148.31,153.08c.64-.89,1.13-2.06,1.13-3.68s-.49-2.76-1.13-3.66h.61c.58.74,1.18,1.89,1.18,3.66s-.6,2.91-1.18,3.67h-.61Z"/>
              </g>
            </g>
            <g>
              <rect class="cls-4" x="216.9" y="139.37" width="17.37" height="10"/>
              <polygon class="cls-17" points="216.9 146.18 225.61 146.18 225.61 149.37 234.27 144.37 225.61 139.37 225.61 142.56 216.9 142.56 216.9 146.18"/>
            </g>
            <rect x="182.87" y="142.56" width="10" height="3.62"/>
          </g>
        </g>
      </g>
      <g>
        <g>
          <rect class="cls-4" x="246.74" y="406.66" width="10" height="17.37"/>
          <polygon class="cls-17" points="249.93 406.66 249.93 415.37 246.74 415.37 251.74 424.03 256.74 415.37 253.55 415.37 253.55 406.66 249.93 406.66"/>
        </g>
        <g>
          <g>
            <rect class="cls-58" x="1.74" y="322.27" width="500" height="84.39" rx="10" ry="10"/>
            <rect class="cls-3" x="1.74" y="322.27" width="500" height="84.39" rx="10" ry="10"/>
          </g>
          <text class="cls-8" transform="translate(143.14 336.31)"><tspan class="cls-36" x="0" y="0">Mo</tspan><tspan class="cls-47" x="15.72" y="0">del</tspan><tspan class="cls-21" x="31.11" y="0"> </tspan><tspan class="cls-18" x="32.9" y="0">T</tspan><tspan class="cls-32" x="38.33" y="0">r</tspan><tspan x="42.39" y="0">aining Phase </tspan><tspan class="cls-31" x="107.23" y="0">(</tspan><tspan class="cls-18" x="110.92" y="0">T</tspan><tspan class="cls-32" x="116.36" y="0">r</tspan><tspan x="120.42" y="0">aining HTR </tspan><tspan class="cls-2" x="176.15" y="0">C</tspan><tspan x="182.66" y="0">lassifier)</tspan></text>
          <g>
            <rect class="cls-3" x="11.17" y="352.69" width="160" height="38.3" rx="10" ry="10"/>
            <text class="cls-9" transform="translate(44.23 363.68)"><tspan class="cls-48" x="0" y="0">S</tspan><tspan class="cls-56" x="4.49" y="0">ele</tspan><tspan class="cls-29" x="15.63" y="0">c</tspan><tspan x="19.78" y="0">t subset of files and </tspan><tspan x="-16" y="10.8">manually label </tspan><tspan class="cls-57" x="40.66" y="10.8">g</tspan><tspan class="cls-41" x="45.63" y="10.8">r</tspan><tspan x="48.49" y="10.8">ound truth HTRs</tspan><tspan x="-1.71" y="21.6">(</tspan><tspan class="cls-46" x=".84" y="21.6">P</tspan><tspan class="cls-41" x="5.49" y="21.6">r</tspan><tspan x="8.34" y="21.6">epa</tspan><tspan class="cls-41" x="22.31" y="21.6">r</tspan><tspan x="25.16" y="21.6">e D</tspan><tspan class="cls-13" x="37.57" y="21.6">a</tspan><tspan x="41.87" y="21.6">ta</tspan><tspan class="cls-23" x="49.19" y="21.6"> </tspan><tspan class="cls-10" x="50.73" y="21.6">T</tspan><tspan x="54.62" y="21.6">a</tspan><tspan class="cls-55" x="58.96" y="21.6">b</tspan><tspan x="63.87" y="21.6">, </tspan><tspan class="cls-37" x="67.64" y="21.6">S</tspan><tspan class="cls-40" x="72.05" y="21.6">t</tspan><tspan class="cls-56" x="74.97" y="21.6">ep 2) </tspan></text>
          </g>
          <g>
            <rect class="cls-3" x="194.47" y="342.31" width="115" height="22" rx="5" ry="5"/>
            <text class="cls-9" transform="translate(211.81 350.55)"><tspan class="cls-25" x="0" y="0">T</tspan><tspan class="cls-19" x="4.07" y="0">r</tspan><tspan class="cls-56" x="6.97" y="0">ain </tspan><tspan class="cls-12" x="20.31" y="0">X</tspan><tspan x="25.19" y="0">G</tspan><tspan class="cls-34" x="31" y="0">B</tspan><tspan class="cls-56" x="35.92" y="0">oost model </tspan><tspan x="-7.25" y="10.8">using </tspan><tspan class="cls-57" x="15.31" y="10.8">g</tspan><tspan class="cls-41" x="20.29" y="10.8">r</tspan><tspan x="23.14" y="10.8">ound truth labels</tspan></text>
          </g>
          <g>
            <rect class="cls-3" x="382.85" y="352.32" width="110" height="38.3" rx="10" ry="10"/>
            <text class="cls-9" transform="translate(389.74 368.71)"><tspan class="cls-24" x="0" y="0">S</tspan><tspan class="cls-13" x="4.46" y="0">a</tspan><tspan x="8.77" y="0">tisfa</tspan><tspan class="cls-29" x="24.38" y="0">c</tspan><tspan class="cls-57" x="28.53" y="0">t</tspan><tspan x="31.45" y="0">o</tspan><tspan class="cls-1" x="36.4" y="0">r</tspan><tspan x="39.56" y="0">y pe</tspan><tspan class="cls-26" x="55.34" y="0">r</tspan><tspan class="cls-52" x="58.55" y="0">f</tspan><tspan x="61.06" y="0">o</tspan><tspan class="cls-20" x="66" y="0">r</tspan><tspan x="68.98" y="0">man</tspan><tspan class="cls-40" x="85.82" y="0">c</tspan><tspan x="89.8" y="0">e </tspan><tspan x="8.06" y="10.8">(</tspan><tspan class="cls-51" x="10.61" y="10.8">e</tspan><tspan x="15.01" y="10.8">.</tspan><tspan class="cls-45" x="16.88" y="10.8">g</tspan><tspan x="21.77" y="10.8">., F1 s</tspan><tspan class="cls-57" x="41.88" y="10.8">c</tspan><tspan x="45.85" y="10.8">o</tspan><tspan class="cls-41" x="50.8" y="10.8">r</tspan><tspan x="53.65" y="10.8">e &gt; 90%) </tspan></text>
          </g>
          <g>
            <text class="cls-9" transform="translate(197.37 389.25)"><tspan x="0" y="0"> </tspan><tspan class="cls-57" x="1.91" y="0">U</tspan><tspan x="7.68" y="0">se (mis)classific</tspan><tspan class="cls-53" x="64.41" y="0">a</tspan><tspan class="cls-28" x="68.71" y="0">tion </tspan><tspan class="cls-35" x="85.64" y="0">r</tspan><tspan class="cls-56" x="88.5" y="0">epo</tspan><tspan class="cls-42" x="103.07" y="0">r</tspan><tspan x="106.23" y="0">t</tspan><tspan x="6.33" y="10.8"> </tspan><tspan class="cls-57" x="8.24" y="10.8">t</tspan><tspan x="11.16" y="10.8">o </tspan><tspan class="cls-41" x="18.01" y="10.8">r</tspan><tspan class="cls-56" x="20.87" y="10.8">eview e</tspan><tspan class="cls-20" x="49.36" y="10.8">r</tspan><tspan class="cls-41" x="52.34" y="10.8">r</tspan><tspan x="55.19" y="10.8">or</tspan><tspan class="cls-15" x="63.08" y="10.8">s</tspan><tspan class="cls-56" x="66.54" y="10.8">, fix labels</tspan></text>
            <rect class="cls-3" x="194.47" y="381.01" width="115" height="22" rx="5" ry="5"/>
          </g>
          <g>
            <text class="cls-7" transform="translate(324.45 374.42)"><tspan x="0" y="0">[U</tspan><tspan class="cls-57" x="8.96" y="0">n</tspan><tspan x="14.18" y="0">til]</tspan></text>
            <g>
              <rect class="cls-4" x="349.09" y="366.84" width="17.37" height="10"/>
              <polygon class="cls-17" points="349.09 373.65 357.8 373.65 357.8 376.84 366.46 371.84 357.8 366.84 357.8 370.03 349.09 370.03 349.09 373.65"/>
            </g>
            <rect x="315.06" y="370.03" width="10" height="3.62"/>
          </g>
          <use width="57.16" height="58" transform="translate(246.74 367.59) scale(.17)" xlink:href="#Reload"/>
          <g>
            <rect class="cls-4" x="171.17" y="366.57" width="17.37" height="10"/>
            <polygon class="cls-17" points="171.17 373.38 179.88 373.38 179.88 376.57 188.54 371.57 179.88 366.57 179.88 369.76 171.17 369.76 171.17 373.38"/>
          </g>
        </g>
      </g>
    </g>
  </g>
</svg>